PathFileType	4	(X/Y/Z)	E:\Qualisys_Data\Carbon_Farble_Plate\Data\Amateur_Runner\S2\T3\S2T3V12_c3d.trc
DataRate	CameraRate	NumFrames	NumMarkers	Units	OrigDataRate	OrigDataStartFrame	OrigNumFrames
200.000000	200.000000	4	39	mm	200.000000	79	316
Frame#	Time	LSHO			RSHO			LICST			RICST			LASIS			LHEEL			RASIS			LTROC			RTROC			SACR			LTH1			LSK4			LTH2			LTH3			RHM5			LSK2			LTH4			RTH1			LTOE			RTH2			RTH3			RTH4			LLEP			RLEP			LSK1			LSK3			RSK1			LHM5			RSK2			LFT1			RSK3			RSK4			LLME			RLME			RTOE			RHEEL			RFT1			RFT2			LFT2			
		X1	Y1	Z1	X2	Y2	Z2	X3	Y3	Z3	X4	Y4	Z4	X5	Y5	Z5	X6	Y6	Z6	X7	Y7	Z7	X8	Y8	Z8	X9	Y9	Z9	X10	Y10	Z10	X11	Y11	Z11	X12	Y12	Z12	X13	Y13	Z13	X14	Y14	Z14	X15	Y15	Z15	X16	Y16	Z16	X17	Y17	Z17	X18	Y18	Z18	X19	Y19	Z19	X20	Y20	Z20	X21	Y21	Z21	X22	Y22	Z22	X23	Y23	Z23	X24	Y24	Z24	X25	Y25	Z25	X26	Y26	Z26	X27	Y27	Z27	X28	Y28	Z28	X29	Y29	Z29	X30	Y30	Z30	X31	Y31	Z31	X32	Y32	Z32	X33	Y33	Z33	X34	Y34	Z34	X35	Y35	Z35	X36	Y36	Z36	X37	Y37	Z37	X38	Y38	Z38	X39	Y39	Z39	

80	0.395	-930.34228515625	1500.254028320312	-545.3975830078125	-839.0419921875	1475.87890625	-250.3079833984375	-940.3743896484376	1036.926391601562	-535.8718872070312	-895.0901489257812	1026.197875976562	-240.2787170410156	-880.7214965820312	988.8313598632812	-521.97412109375	-842.6251831054688	90.55893707275392	-424.4797058105469	-842.5073852539062	976.298583984375	-267.4082336425781	-1004.286987304688	909.4981689453124	-533.1854858398438	-996.8802490234376	940.1605224609376	-220.8261413574219	-1014.368774414062	1073.57080078125	-371.0545654296875	-830.1470336914062	679.6863403320312	-558.7015380859375	-861.1873168945312	297.4314270019531	-514.6492919921875	-912.780517578125	659.7615966796875	-551.4750366210938	-805.4136962890625	584.24560546875	-528.380126953125	-1425.148071289062	194.9097290039062	-232.8572082519531	-869.843017578125	394.9007568359375	-530.4742431640625	-888.1697998046875	566.5006103515625	-521.0596313476562	-943.8204345703124	655.351806640625	-230.7231903076172	-607.836669921875	161.3233337402344	-475.5832214355469	-1016.342895507812	680.9976196289062	-221.4798431396484	-977.6807861328124	561.092041015625	-239.954345703125	-1053.182983398438	590.3258666992188	-237.7801513671875	-836.5812377929688	532.9216918945312	-520.2041625976562	-1044.460571289062	550.4404907226562	-231.6645660400391	-792.3086547851562	403.0398254394531	-524.44091796875	-782.2279663085938	304.3787841796875	-512.6226196289062	-1124.14306640625	453.845458984375	-222.7075805664062	-664.9170532226562	112.9027633666992	-521.6210327148438	-1166.491943359375	521.5234985351562	-219.0066070556641	-819.527587890625	72.96764373779297	-393.9133605957031	-1210.535278320312	399.0619506835938	-226.4987640380859	-1249.84375	467.42138671875	-229.2410125732422	-793.3161010742188	121.5408020019531	-482.669189453125	-1389.30517578125	329.2949829101562	-251.4705200195312	-1390.619018554688	133.4344482421875	-284.3470764160156	-1406.184204101562	383.6111450195312	-311.0781555175781	-1425.437255859375	366.9936828613281	-346.0319213867188	-1436.299926757812	382.2844848632812	-296.8656005859375	-831.2310791015625	59.44882965087891	-442.4344177246094
81	0.4	-915.308837890625	1496.3486328125	-546.4857788085938	-823.9009399414062	1472.919555664062	-251.0992584228516	-926.1739501953124	1033.922729492188	-535.7493286132812	-880.4993286132812	1023.223510742188	-240.4436492919922	-866.0324096679688	985.832763671875	-522.128662109375	-829.234619140625	87.63272094726562	-423.7370300292969	-827.4102172851562	973.6837768554688	-267.5862121582031	-989.3529052734376	905.9889526367188	-532.7476806640625	-981.2606811523438	936.0997314453124	-221.0084228515625	-999.3109130859376	1070.298095703125	-371.0564270019531	-814.0353393554688	676.5733642578125	-558.146728515625	-846.4800415039062	294.9558715820312	-514.12158203125	-896.421142578125	656.6580810546875	-551.7638549804688	-789.5613403320312	581.5784912109375	-526.4798583984375	-1411.866943359375	200.2874450683594	-231.8543090820312	-854.5717163085938	392.1326293945312	-529.407470703125	-872.4894409179688	563.6826171875	-520.4093017578125	-925.8856201171876	652.0105590820312	-230.4116668701172	-594.1107788085938	159.044189453125	-473.3180847167969	-998.59912109375	676.3214721679688	-221.6297454833984	-958.607666015625	556.1652221679688	-239.9931182861328	-1033.803344726562	584.9493408203125	-237.0911407470703	-820.7125244140625	530.447998046875	-519.4998168945312	-1024.752563476562	544.8084716796875	-231.5402069091797	-776.9329833984375	400.4197998046875	-523.6386108398438	-767.8547973632812	301.2547302246094	-510.9520874023438	-1105.568481445312	451.3404846191406	-222.3770599365234	-650.7977905273438	110.140739440918	-519.7452392578125	-1146.223388671875	520.0612182617188	-218.9246520996094	-806.2290649414062	70.46747589111328	-392.7503662109375	-1193.34326171875	398.7110290527344	-226.7268371582031	-1231.047607421875	468.2416687011719	-229.3153381347656	-779.3611450195312	118.5749664306641	-481.5564270019531	-1374.023681640625	334.0345764160156	-251.6648406982422	-1378.932739257812	137.9538879394531	-283.5798645019531	-1389.937744140625	388.1472778320312	-311.600341796875	-1409.2578125	371.8670959472656	-345.9859313964844	-1419.573608398438	386.9201965332031	-297.0968322753906	-817.6607055664062	56.34983444213867	-441.384765625
82	0.405	-900.0953979492188	1492.380004882812	-547.6405639648438	-808.5733642578125	1469.628295898438	-251.8174438476562	-911.941162109375	1030.5087890625	-535.9163818359375	-865.7652587890625	1019.448425292969	-240.4921417236328	-851.5284423828125	983.24853515625	-522.3771362304688	-816.7849731445312	85.08354187011719	-422.5785522460938	-812.6060791015625	971.0368041992188	-267.873291015625	-974.2230834960938	902.1578369140624	-533.1071166992188	-966.0792236328124	931.724853515625	-221.6093139648438	-984.8834838867188	1066.646606445312	-371.1281127929688	-797.7064208984375	674.355224609375	-557.10595703125	-832.2505493164062	292.0513916015625	-513.223388671875	-880.026611328125	654.077392578125	-550.9104614257812	-772.8821411132812	579.16455078125	-524.3994140625	-1398.563842773438	206.1502227783203	-230.5345611572266	-839.7374267578125	389.4888000488281	-528.8117065429688	-855.7548217773438	561.2935791015625	-519.2420043945312	-907.403076171875	648.0842895507812	-229.5940704345703	-581.7529907226562	155.8075103759766	-470.7491455078125	-980.8126831054688	671.58056640625	-221.1634216308594	-938.8132934570312	552.5162963867188	-238.6541137695312	-1014.674865722656	579.427001953125	-237.0458831787109	-804.5230102539062	527.710693359375	-518.5470581054688	-1004.844543457031	539.8999633789062	-230.8201446533203	-762.091064453125	396.899658203125	-522.0979614257812	-753.69677734375	297.8375854492188	-509.9449768066406	-1087.124389648438	448.1840209960938	-222.1773071289062	-637.6029052734375	106.8343200683594	-517.7147216796875	-1125.825073242188	518.0281982421875	-218.9337005615234	-793.6959838867188	67.60310363769531	-391.5603942871094	-1175.931396484375	398.3286437988281	-226.2730102539062	-1211.724609375	468.5293884277344	-229.5669097900391	-766.2568969726562	115.1963272094727	-480.4539184570312	-1358.4345703125	338.3553771972656	-251.8035736083984	-1366.696044921875	142.4825134277344	-282.5837097167969	-1373.435546875	392.1236877441406	-311.9943237304688	-1392.386474609375	376.503662109375	-346.5929565429688	-1402.428833007812	391.8245544433594	-297.5720520019531	-804.7000122070312	53.36821746826172	-440.3617858886719
83	0.41	-885.7252197265625	1487.686645507812	-548.8377685546875	-793.4160766601562	1465.944458007812	-252.8528900146484	-898.0947875976562	1027.186279296875	-535.805419921875	-851.8103637695312	1015.743408203125	-240.5931549072266	-837.205078125	979.8462524414062	-522.6820678710938	-804.92041015625	85.72672271728516	-420.9688720703125	-797.7125244140625	967.4545288085938	-267.7231750488281	-958.9886474609376	898.5169677734375	-532.9223022460938	-950.2921142578124	927.0082397460938	-221.727294921875	-969.853759765625	1062.9990234375	-370.5144958496094	-781.1349487304688	671.8094482421875	-556.1381225585938	-818.6773681640625	288.8339233398438	-512.3069458007812	-863.5862426757812	651.7103271484375	-549.3411254882812	-756.1502075195312	577.03564453125	-522.3606567382812	-1384.512939453125	211.5324249267578	-230.1956787109375	-825.4293212890625	386.3485717773438	-527.8932495117188	-838.701171875	558.6803588867188	-517.3366088867188	-889.4389038085938	643.7611694335938	-228.8980255126953	-569.303466796875	152.0884857177734	-467.4403076171875	-962.78369140625	666.5327758789062	-220.4153747558594	-918.8256225585938	547.4541015625	-238.1157836914062	-995.3583374023438	574.0425415039062	-236.7318115234375	-788.3719482421875	524.86865234375	-517.8644409179688	-984.671875	534.8486938476562	-230.2825927734375	-747.6744384765625	393.17529296875	-521.3980102539062	-740.1944580078125	294.0088195800781	-508.8647766113281	-1067.966186523438	445.08349609375	-221.4624633789062	-625.306884765625	103.4048614501953	-515.1196899414062	-1105.201416015625	515.685791015625	-219.0200958251953	-783.0786743164062	66.95213317871094	-390.7111511230469	-1158.72265625	396.9036254882812	-226.8936767578125	-1192.441528320312	468.6482238769531	-229.6585845947266	-754.119384765625	112.023811340332	-479.1593933105469	-1342.034057617188	342.9323120117188	-252.3665618896484	-1353.933349609375	146.7281188964844	-281.1550903320312	-1355.71240234375	396.733642578125	-312.7934875488281	-1375.005981445312	380.9688110351562	-346.6224060058594	-1385.24072265625	396.9100036621094	-298.1337585449219	-793.8793334960938	53.88027572631836	-439.6669311523438
